<svg xmlns="http://www.w3.org/2000/svg" viewBox="0 0 132 132" width="132" height="132" role="img" aria-label="Diamond House Blessings">
  <defs>
    <linearGradient id="dhbGem" x1="0" y1="0" x2="0" y2="1">
      <stop offset="0" stop-color="#f6ead0"/>
      <stop offset="0.5" stop-color="#d8b877"/>
      <stop offset="1" stop-color="#a8791d"/>
    </linearGradient>
    <linearGradient id="dhbGem2" x1="0" y1="0" x2="1" y2="1">
      <stop offset="0" stop-color="#fbf4e3"/>
      <stop offset="1" stop-color="#c9a75f"/>
    </linearGradient>
  </defs>
  <!-- House -->
  <g fill="none" stroke="#2a241d" stroke-width="3.6" stroke-linejoin="round" stroke-linecap="round">
    <path d="M18 66 L66 24 L114 66"/>
    <path d="M30 60 L30 110 L102 110 L102 60"/>
    <path d="M40 33 L40 48 L50 48 L50 41"/>
  </g>
  <!-- Diamond -->
  <g>
    <polygon points="48,70 84,70 90,80 66,106 42,80" fill="url(#dhbGem)"/>
    <polygon points="48,70 84,70 90,80 42,80" fill="url(#dhbGem2)" opacity="0.6"/>
    <g fill="none" stroke="#6f5316" stroke-width="1.2" stroke-linejoin="round" opacity="0.7">
      <path d="M42 80 L90 80"/>
      <path d="M48 70 L54 80 L66 70 L78 80 L84 70"/>
      <path d="M54 80 L66 106 M78 80 L66 106 M66 70 L66 106"/>
    </g>
  </g>
  <!-- Sparkle -->
  <path d="M99 40 L101 47 L108 49 L101 51 L99 58 L97 51 L90 49 L97 47 Z" fill="#b0831f"/>
</svg>
